<svg id="Layer_1" data-name="Layer 1" xmlns="http://www.w3.org/2000/svg" viewBox="0 0 50 50"><defs><style>.cls-1{fill:#183153;}</style></defs><title>dark mode</title><path class="cls-1" d="M32.37,35.76a10.83,10.83,0,0,1-7.64-3.26.75.75,0,1,1,1.07-1,9.33,9.33,0,0,0,6.57,2.8,9.19,9.19,0,0,0,6.89-3.06,8.26,8.26,0,0,1-4.71-.3,8.14,8.14,0,0,1-5.16-6,8.22,8.22,0,0,1,4.38-9,9.23,9.23,0,0,0-10.25,6.43.75.75,0,1,1-1.43-.44,10.75,10.75,0,0,1,12.8-7.3,1.27,1.27,0,0,1,1,1.16A1.24,1.24,0,0,1,35,16.93a6.71,6.71,0,0,0-4.18,7.66,6.62,6.62,0,0,0,4.2,4.9,6.84,6.84,0,0,0,4.51.07A1.21,1.21,0,0,1,41,30a1.25,1.25,0,0,1,0,1.49A10.7,10.7,0,0,1,32.37,35.76Zm2.15-20.24Z"/><path class="cls-1" d="M22.49,23.53h-1a5,5,0,0,0-9.29,0,3.93,3.93,0,0,0,.5,7.82H22.3a3.81,3.81,0,0,0,1.94-.52l.05,0a3.39,3.39,0,0,0,.78-.6,3.92,3.92,0,0,0-2.58-6.69ZM24,29.16a1.89,1.89,0,0,1-.51.38,0,0,0,0,1,0,0,2.33,2.33,0,0,1-1.19.32H12.72a2.43,2.43,0,0,1-2.43-2.43A2.41,2.41,0,0,1,11,25.73,2.44,2.44,0,0,1,12.77,25h.57l.15-.55a3.52,3.52,0,0,1,6.77,0l.15.55h2A2.42,2.42,0,0,1,24,29.16Z"/></svg>