<?xml version="1.0" encoding="UTF-8"?><svg xmlns="http://www.w3.org/2000/svg" xmlns:xlink="http://www.w3.org/1999/xlink" height="31.0" preserveAspectRatio="xMidYMid meet" version="1.0" viewBox="1.3 0.5 29.6 31.0" width="29.6" zoomAndPan="magnify"><g id="change1_1"><path d="M19.40002,7.12c0-3.65002-2.97003-6.62-6.61005-6.62c-3.64996,0-6.62,2.96997-6.62,6.62 c0,3.64001,2.97003,6.60999,6.62,6.60999C16.42999,13.72998,19.40002,10.76001,19.40002,7.12z" fill="inherit"/><path d="M12.78998,14.5c-6.34998,0-11.5,5.15997-11.5,11.5v2c0,1.92999,1.57001,3.5,3.5,3.5h16c1.92004,0,3.5-1.57001,3.5-3.5v-2 C24.28998,19.65997,19.13,14.5,12.78998,14.5z" fill="inherit"/><path d="M28.1543,8.15039l-3.71582,3.71582l-1.36426-1.36328c-0.58594-0.58594-1.53516-0.58594-2.12109,0 s-0.58594,1.53613,0,2.12109l2.4248,2.42383c0.29297,0.29297,0.67676,0.43945,1.06055,0.43945s0.76758-0.14648,1.06055-0.43945 l4.77637-4.77637c0.58594-0.58594,0.58594-1.53516,0-2.12109S28.74023,7.56445,28.1543,8.15039z" fill="inherit"/></g></svg>