<?xml version="1.0" encoding="UTF-8"?><svg xmlns="http://www.w3.org/2000/svg" xmlns:xlink="http://www.w3.org/1999/xlink" clip-rule="evenodd" fill-rule="evenodd" height="122.4" preserveAspectRatio="xMidYMid meet" stroke-linejoin="round" stroke-miterlimit="2" version="1.0" viewBox="5.5 5.5 122.4 122.4" width="122.4" zoomAndPan="magnify"><g fill="#000200" id="change1_1"><path d="M127.847,37.5c-0,-17.669 -14.345,-32.014 -32.014,-32.014l-58.333,0c-17.669,0 -32.014,14.345 -32.014,32.014l0,58.333c0,17.669 14.345,32.014 32.014,32.014c0,-0 58.333,-0 58.333,-0c17.669,-0 32.014,-14.345 32.014,-32.014l-0,-58.333Zm-5.694,-0l0,58.333c0,14.527 -11.793,26.32 -26.32,26.32l-58.333,0c-14.526,0 -26.32,-11.793 -26.32,-26.32c0,0 0,-58.333 0,-58.333c0,-14.526 11.794,-26.32 26.32,-26.32c0,0 58.333,0 58.333,0c14.527,0 26.32,11.794 26.32,26.32Z" fill="inherit"/><path d="M84.653,56.411l0,-8.744c0,-1.112 0.647,-2.122 1.657,-2.586c1.009,-0.465 2.197,-0.3 3.041,0.423l20.834,17.833c0.631,0.541 0.995,1.331 0.995,2.163c0,0.832 -0.364,1.622 -0.995,2.163l-20.834,17.833c-0.844,0.723 -2.032,0.888 -3.041,0.423c-1.01,-0.464 -1.657,-1.474 -1.657,-2.586l0,-8.744l-38.403,-0c-1.572,-0 -2.847,-1.275 -2.847,-2.847l0,-12.484c0,-1.572 1.275,-2.847 2.847,-2.847l38.403,0Zm5.694,-2.56l-0,5.407c-0,1.573 -1.275,2.847 -2.847,2.847l-38.403,0l-0,6.79l38.403,-0c1.572,-0 2.847,1.274 2.847,2.847l-0,5.407l13.609,-11.649l-13.609,-11.649Z" fill="inherit"/><path d="M49.097,68.895l17.57,-0c1.572,-0 2.847,1.274 2.847,2.847c-0,-0 -0,20.79 -0,20.79c-0,4.982 -4.12,9.065 -9.254,9.065c-7.389,-0 -19.464,-0 -26.853,-0c-5.134,-0 -9.254,-4.083 -9.254,-9.065c0,-12.269 0,-39.462 0,-51.73c0,-4.983 4.12,-9.065 9.254,-9.066c7.389,0 19.464,0 26.853,0c5.134,0.001 9.254,4.083 9.254,9.066l-0,18.456c-0,1.573 -1.275,2.847 -2.847,2.847l-17.57,0l-0,6.79Zm14.723,-12.484l-0,-15.609c-0,-1.886 -1.617,-3.372 -3.56,-3.372c-7.389,0 -19.464,0 -26.853,0c-1.943,0 -3.56,1.486 -3.56,3.372c-0,12.268 -0,39.461 -0,51.73c-0,1.886 1.617,3.371 3.56,3.371c7.389,0 19.464,0 26.853,0c1.943,0 3.56,-1.485 3.56,-3.371l-0,-17.943l-17.57,-0c-1.572,-0 -2.847,-1.275 -2.847,-2.847l0,-12.484c0,-1.572 1.275,-2.847 2.847,-2.847l17.57,0Z" fill="inherit"/><path d="M49.097,68.895l17.57,-0c1.572,-0 2.847,1.274 2.847,2.847c-0,-0 -0,35.892 -0,35.892c-0.001,11.163 -9.05,20.213 -20.214,20.213c-6.254,-0 -11.8,-0 -11.8,-0c-17.669,-0 -32.014,-14.345 -32.014,-32.014l0,-58.333c0,-17.669 14.345,-32.014 32.014,-32.014l11.8,0c11.164,0 20.213,9.05 20.214,20.213l-0,33.559c-0,1.573 -1.275,2.847 -2.847,2.847l-17.57,0l-0,6.79Zm14.723,-12.484l-0,-30.712c-0,-8.018 -6.501,-14.519 -14.52,-14.519c-6.254,0 -11.8,0 -11.8,0c-14.526,0 -26.32,11.794 -26.32,26.32c0,0 0,58.333 0,58.333c0,14.527 11.794,26.32 26.32,26.32c-0,0 5.546,0 11.8,0c8.019,0 14.52,-6.5 14.52,-14.519l-0,-33.045l-17.57,-0c-1.572,-0 -2.847,-1.275 -2.847,-2.847l0,-12.484c0,-1.572 1.275,-2.847 2.847,-2.847l17.57,0Z" fill="inherit"/></g></svg>